# xmcd
#
# Track frame offsets:
#	150
#	46210
#	85442
#	129010
#	170897
#	208117
#	261070
#	281700
#	300682
#
# Disc length: 4212 seconds
#
# Revision: 1
# Processed by: cddbd v1.5.1PL0 Copyright (c) Steve Scherf et al.
# Submitted via: CDex 1.50Beta5
#
DISCID=7f107209
DTITLE=桑島法子 - 文化放送CLUB db オリジナルドラマCD メモリーサイト75 VOL.2
DYEAR=2001
DGENRE=
TTITLE0=桑島法子/第6話
TTITLE1=桑島法子/第7話
TTITLE2=桑島法子/第8話
TTITLE3=桑島法子/第9話
TTITLE4=桑島法子/第10話
TTITLE5=桑島法子/第11話
TTITLE6=氷上恭子/Pre-Love
TTITLE7=桑島法子/『恐怖少女ホウコ』〜ミニドラマ
TTITLE8=桑島法子/ドークサイト01
EXTD=
EXTT0=
EXTT1=
EXTT2=
EXTT3=
EXTT4=
EXTT5=
EXTT6=
EXTT7=
EXTT8=
PLAYORDER=
